<?xml version="1.0" encoding="UTF-8" standalone="no"?>
<!DOCTYPE svg PUBLIC "-//W3C//DTD SVG 1.1//EN" "http://www.w3.org/Graphics/SVG/1.1/DTD/svg11.dtd">
<svg width="100%" height="100%" viewBox="0 0 1024 1536" version="1.1" xmlns="http://www.w3.org/2000/svg" xmlns:xlink="http://www.w3.org/1999/xlink" xml:space="preserve" xmlns:serif="http://www.serif.com/" style="fill-rule:evenodd;clip-rule:evenodd;stroke-linejoin:round;stroke-miterlimit:2;">
    <g id="Background" transform="matrix(1.5,0,0,1.5,0,0)">
        <path d="M420.486,136.741C422.479,136.689 422.536,136.51 424.519,137.461C425.543,137.953 425.487,138.024 426.495,138.51C426.878,138.695 437.918,144.308 439.631,145.235C444.235,147.725 460.108,155.753 462.299,156.892C472.547,162.22 476.427,163.73 480.378,165.734C496.776,174.053 499.815,175.445 500.364,175.754C504.076,177.841 509.966,180.664 515.533,184.458C517.12,185.539 516.814,185.911 518.699,187.114C518.25,188.082 517.467,188.205 517.721,190.467C518.041,193.303 518.031,193.294 518.059,193.54C518.524,201.027 518.496,201.015 518.899,208.5C518.991,210.206 519.43,210.059 519.61,210.589C519.602,210.623 519.113,211.355 519.141,212.466C519.205,214.974 519.773,220.736 519.844,221.454C519.942,222.447 520.042,222.424 520.766,223.127C520.578,223.663 519.948,223.965 519.76,224.5C519.731,224.581 519.995,224.533 520.01,225.538C520.019,226.096 520.108,231.909 520.285,232.5C520.411,232.921 520.778,233.242 520.904,233.663C520.861,234.087 520.678,234.06 520.718,235.5C521.496,263.535 522.352,263.484 523.151,291.512C523.453,302.084 523.8,302.049 524.138,316.511C524.226,320.248 524.725,325.384 524.905,337.492C525.179,355.885 525.518,355.862 526.393,386.503C528.511,461.499 530.629,536.496 532.747,611.493C532.858,615.172 532.669,615.172 533.71,657.495C534.079,672.508 533.777,672.504 534.429,687.503C534.898,698.306 534.636,705.142 535.531,729.499C535.633,732.298 535.617,732.275 536.682,764.494C537.086,776.716 536.848,797.928 537.624,819.496C538.081,832.2 538.358,853.54 538.396,856.501C538.594,871.743 538.505,871.957 536.582,874.569C535.804,875.625 530.752,879.779 519.189,891.186C517.899,892.458 517.728,892.275 502.689,906.698C501.343,907.989 488.59,919.806 487.642,920.66C480.434,927.155 480.409,927.11 475.592,931.599C471.7,935.227 471.659,935.154 467.775,938.797C461.251,944.915 460.219,945.877 457.413,943.613C454.576,941.324 446.316,933.48 438.16,925.865C420.819,909.675 420.767,909.751 403.677,893.315C389.455,879.638 383.32,874.655 382.43,872.532C380.916,868.922 382.612,858.357 383.125,833.49C383.146,832.479 383.157,832.491 384.764,795.513C385.289,783.438 385.07,783.451 385.883,768.53C385.953,767.248 385.929,767.251 386.685,752.508C386.825,749.788 386.525,749.779 388.012,718.482C388.614,705.826 389.1,690.888 389.179,688.488C389.233,686.807 389.409,686.821 390.2,667.484C390.335,664.18 390.622,664.196 391.114,646.488C391.216,642.805 391.584,642.826 393.19,600.486C393.254,598.805 393.369,598.813 394.238,579.485C396.14,537.165 396.138,537.165 396.507,533.501C396.894,529.662 397.01,519.776 397.626,512.511C397.636,512.387 398.444,496.159 398.917,488.519C399.006,487.08 398.933,487.085 399.832,470.523C400.892,450.975 400.617,450.977 402.014,431.461C402.407,425.981 402.291,425.994 402.744,420.521C402.85,419.243 402.623,419.249 403.565,404.503C404.491,389.993 404.618,390.022 405.256,375.49C405.387,372.528 405.539,372.541 407.575,338.504C408.384,324.987 408.637,325.014 409.204,311.485C409.399,306.832 409.649,306.859 410.144,297.478C410.35,293.58 410.806,290.871 411.089,283.477C411.267,278.825 412.753,261.444 412.916,259.53C413.344,254.523 413.049,254.518 413.636,249.514C414.105,245.514 413.728,245.502 414.572,237.506C414.642,236.85 414.69,235.56 414.682,235.482C414.573,234.359 414.325,234.452 413.328,233.956C413.679,233.411 414.233,233.015 414.584,232.47C414.871,232.025 414.978,230.76 415.235,225.46C415.203,225.129 415.539,224.831 415.507,224.5C415.507,224.5 415.033,223.042 414.992,222.916C415.066,222.733 415.278,222.628 415.352,222.445C415.718,221.549 416.079,215.59 416.083,215.471C416.275,210.47 416.588,210.504 416.823,205.519C417.65,187.975 418.518,186.654 419.246,167.489C419.37,164.224 419.554,164.068 418.346,162.663C418.655,162.137 419.448,162.025 419.757,161.5C419.929,161.207 419.626,160.829 419.625,160.49C419.623,159.767 419.715,159.779 420.235,151.477C420.376,149.234 420.647,143.767 420.715,142.511C420.889,138.339 420.972,138.34 420.865,137.5C420.829,137.22 420.522,137.022 420.486,136.741Z" style="fill:rgb(253,116,50);"/>
        <path d="M257.485,139.273C257.49,141.062 257.349,141.054 257.688,144.473C258.151,149.488 257.968,149.49 258.516,154.498C258.764,156.764 258.97,161.055 259.158,162.505C259.395,164.337 259.24,164.363 259.323,164.5C259.621,164.992 260.333,165.134 260.631,165.626C260.464,165.998 260.044,166.217 259.877,166.588C259.497,167.435 260.59,176.613 260.693,177.481C260.794,178.329 260.693,180.007 261.871,191.465C263.484,207.153 263.198,207.154 263.339,208.516C264.671,221.354 264.613,221.354 264.783,222.463C265.03,224.071 265.421,224.014 265.577,224.395C265.432,224.832 264.894,225.063 264.749,225.5C264.735,225.542 265.068,229.198 265.097,229.519C265.375,232.598 265.411,232.579 265.967,235.614C266.074,239.575 266.094,239.558 266.657,243.481C267.171,247.054 266.738,249.878 267.649,256.481C268.143,260.06 268.821,269.354 268.903,270.475C269.137,273.684 269.391,279.092 270.704,291.479C271.385,297.914 270.965,297.926 271.615,304.49C271.709,305.449 271.663,305.449 272.665,316.485C272.818,318.172 273.149,324.797 273.185,325.52C273.229,326.395 274.683,344.374 274.832,346.473C275.259,352.497 275.12,352.484 275.652,358.489C276.503,368.096 277.062,381.576 277.725,388.478C277.811,389.372 278.088,395.766 278.384,398.511C279.266,406.677 278.809,410.568 279.669,418.482C279.791,419.599 279.655,419.587 280.691,432.484C280.833,434.253 281.446,446.89 281.903,452.468C282.274,456.982 281.997,456.988 282.528,461.497C283.278,467.874 282.416,467.912 283.733,482.477C284.039,485.85 284.73,504.299 285.753,517.478C286.69,529.543 287.116,541.429 287.191,543.513C287.195,543.605 288.739,569.108 288.898,573.484C289.29,584.316 290.711,602.27 291.156,614.515C291.446,622.532 291.776,622.491 292.124,630.522C292.423,637.422 292.776,637.394 293.185,651.512C293.373,658.021 293.726,657.988 293.897,664.486C293.985,667.819 294.601,673.927 294.887,681.481C295.833,706.52 296.49,706.47 297.203,731.509C297.326,735.834 297.582,735.817 300.011,785.518C300.564,796.843 301.117,808.167 301.67,819.492C302.525,836.999 302.842,836.974 303.16,854.507C303.451,870.522 305.031,871.733 300.145,876.1C295.353,880.384 278.74,896.357 278.53,896.531C276.871,897.903 277.122,898.175 258.789,914.821C255.391,917.906 255.553,918.051 252.143,921.102C246.84,925.847 246.837,925.813 241.643,930.655C240.652,931.579 231.743,939.884 229.146,942.082C226.136,944.628 224.974,944.286 224.589,944.173C223.034,943.715 221.827,942.757 198.839,921.138C164.96,889.276 165.153,889.085 158.838,883.138C156.767,881.188 156.812,881.166 154.738,879.24C148.54,873.486 147.864,873.109 147.847,869.5C147.73,843.811 148.93,815.211 149.076,788.497C149.217,762.844 149.796,760.166 150.288,727.496C150.406,719.684 150.809,711.454 150.891,696.503C150.978,680.683 151.864,662.362 152.175,631.496C152.217,627.292 152.695,619.459 153.183,579.495C153.368,564.346 154.692,521.371 155.206,479.497C155.211,479.095 156.208,432.596 156.28,427.498C156.29,426.809 156.899,413.304 157.073,394.495C157.35,364.557 158.299,356.949 159.149,294.494C159.193,291.293 159.404,291.301 160.196,254.492C160.213,253.692 160.258,253.709 160.593,244.503C160.877,236.705 160.464,236.724 160.435,236.535C160.491,236.152 160.904,235.883 160.961,235.5C161.013,235.142 160.752,234.797 160.744,234.435C160.731,233.899 160.91,233.923 160.941,232.519C161.025,228.812 161.161,228.805 161.069,228.497C161.014,228.31 159.54,226.152 159.411,226.062C159.157,225.887 158.741,226.292 158.487,226.117C160.186,225.696 160.792,226.162 161.083,224.447C161.155,224.025 161.121,224.03 161.227,215.576C161.233,215.121 161.068,215.157 161.074,214.709C161.075,214.617 161.078,214.619 161.253,213.573C161.916,209.607 162.461,195.972 162.492,194.499C162.775,190.808 162.939,190.815 162.873,190.5C162.773,190.018 162.334,189.651 162.233,189.168C165.743,185.41 167.057,185.327 172.334,182.205C177.106,179.382 187.365,174.76 192.67,171.818C193.263,171.489 193.329,171.629 200.287,168.087C219.979,158.063 237.45,148.458 241.555,146.615C242.632,146.13 242.585,146.055 254.669,139.822C256.041,139.114 257.411,139.28 257.485,139.273Z" style="fill:rgb(253,116,50);"/>
        <path d="M420.715,142.511C420.647,143.767 420.376,149.234 420.235,151.477C419.715,159.779 419.623,159.767 419.625,160.49C419.626,160.829 419.929,161.207 419.757,161.5C419.448,162.025 418.655,162.137 418.346,162.663C416.449,161.485 401.899,154.281 401.679,154.159C396.655,151.383 363.302,135.211 354.599,131.276C343.1,126.076 341.086,123.122 335.608,125.725C334.477,126.262 333.646,126.657 321.702,132.904C310.385,138.822 310.437,138.905 309.45,139.413C308.878,139.708 308.906,139.732 302.348,143.203C294.399,147.411 265.651,162.503 260.631,165.626C260.333,165.134 259.621,164.992 259.323,164.5C259.24,164.363 259.395,164.337 259.158,162.505C258.97,161.055 258.764,156.764 258.516,154.498C257.968,149.49 258.151,149.488 257.688,144.473C257.984,144.268 258.204,143.965 258.5,143.76C259.217,143.264 259.336,143.467 263.349,140.322C279.305,127.821 293.041,108.979 299.829,100.762C310.824,87.451 319.646,83.673 331.463,81.298C332.452,81.1 347.475,79.459 356.749,84.014C359.318,85.275 362.622,86.338 370.581,92.397C374.318,95.242 382.777,104.574 387.536,110.469C388.947,112.216 400.405,125.309 404.117,128.91C413.197,137.719 417.502,140.377 418.653,141.257C419.854,142.174 420.551,142.412 420.715,142.511Z" style="fill:rgb(187,132,99);"/>
        <path d="M518.699,187.114C519.536,187.53 535.531,196.23 536.143,196.86C537.609,198.371 535.843,201.188 539.47,200.362C545.691,198.945 551.325,201.655 555.392,203.704C570.171,211.151 575.976,217.942 577.386,219.592C584.179,227.539 583.211,234.688 579.289,237.122C574.833,239.887 569.361,235.459 562.442,233.75C559.728,233.079 559.566,233.039 527.502,233.179C522.806,233.199 522.822,233.345 520.904,233.663C520.778,233.242 520.411,232.921 520.285,232.5C520.108,231.909 520.019,226.096 520.01,225.538C519.995,224.533 519.731,224.581 519.76,224.5C519.948,223.965 520.578,223.663 520.766,223.127C527.358,223.753 531.352,222.591 540.508,223.642C542.111,223.826 542.11,223.721 542.627,223.746C542.766,223.528 543.111,223.502 543.25,223.284C543.38,223.079 543.485,222.784 543.378,222.565C543.29,222.385 542.97,222.495 542.807,222.378C542.594,222.225 542.508,221.932 542.292,221.783C541.648,221.337 541.42,221.812 533.406,217.678C532.611,217.268 528.242,215.014 523.447,212.593C522.516,212.123 521.874,211.574 521.53,211.436C520.993,211.221 520.966,211.366 520.435,211.131C519.978,210.929 520.077,210.795 519.61,210.589C519.43,210.059 518.991,210.206 518.899,208.5C518.496,201.015 518.524,201.027 518.059,193.54C518.031,193.294 518.041,193.303 517.721,190.467C517.467,188.205 518.25,188.082 518.699,187.114Z" style="fill:rgb(189,137,105);"/>
        <path d="M162.233,189.168C162.334,189.651 162.773,190.018 162.873,190.5C162.939,190.815 162.775,190.808 162.492,194.499C162.461,195.972 161.916,209.607 161.253,213.573C161.078,214.619 161.075,214.617 161.074,214.709C161.068,215.157 161.233,215.121 161.227,215.576C161.022,215.539 160.582,214.588 158.599,215.688C153.119,218.73 153.088,218.637 147.595,221.668C141.487,225.04 141.258,224.53 140.734,224.831C140.525,224.952 140.534,225.309 140.325,225.43C137.92,225.76 137.929,225.696 137.732,225.767C137.473,225.859 137.312,226.14 137.055,226.235C136.753,226.345 136.646,225.988 134.798,226.96C132.586,228.124 132.688,228.278 130.428,229.368C129.595,229.77 128.787,230.373 126.483,231.469C124.011,232.645 120.496,234.952 120.5,235.085C120.53,236.046 121.453,236.845 121.583,236.959C121.996,237.316 122.123,236.492 122.545,236.858C117.929,237.831 117.956,237.92 113.659,239.838C113.149,240.066 105.409,244.468 101.743,238.354C99.523,234.651 100.324,226.78 106.724,220.744C115.082,212.86 130.68,203.705 136.465,203.152C142.076,202.615 144.071,205.09 144.662,201.519C145.171,198.441 146.141,199.019 150.345,196.258C153.802,193.989 158.063,191.826 162.233,189.168Z" style="fill:rgb(189,136,104);"/>
        <path d="M333.5,0L337.5,0C337.603,1.265 337.656,1.244 337.703,2.499C337.747,3.674 337.574,3.79 338.432,4.594C339.21,5.323 345.627,4.927 351.713,11.3C356.947,16.781 357.709,22.365 357.856,23.444C359.778,37.526 352.977,43.313 346.83,48.867C339.411,55.571 341.696,61.057 341.806,65.488C342.035,74.705 341.654,74.692 341.696,75.491C341.712,75.793 341.927,76.061 341.943,76.363C345.65,77.369 345.765,76.588 349.519,77.404C360.516,79.795 366.96,84.066 373.13,88.94C383.525,97.153 394.898,118.261 417.62,135.336C419.77,136.951 420.343,136.693 420.486,136.741C420.522,137.022 420.829,137.22 420.865,137.5C420.972,138.34 420.889,138.339 420.715,142.511C420.551,142.412 419.854,142.174 418.653,141.257C417.502,140.377 413.197,137.719 404.117,128.91C400.405,125.309 388.947,112.216 387.536,110.469C382.777,104.574 374.318,95.242 370.581,92.397C362.622,86.338 359.318,85.275 356.749,84.014C347.475,79.459 332.452,81.1 331.463,81.298C319.646,83.673 310.824,87.451 299.829,100.762C293.041,108.979 279.305,127.821 263.349,140.322C259.336,143.467 259.217,143.264 258.5,143.76C258.204,143.965 257.984,144.268 257.688,144.473C257.349,141.054 257.49,141.062 257.485,139.273C258.165,139.037 258.379,139.463 261.354,137.288C271.663,129.75 278.786,122.198 289.659,108.622C296.688,99.847 299.964,94.91 306.346,89.324C312.416,84.011 315.824,82.383 321.639,79.82C322.22,79.565 328.237,77.52 333.545,76.929C335.375,76.725 336.67,76.915 336.646,74.502C336.496,59.605 332.246,53.653 343.286,43.268C345.626,41.066 345.649,41.118 348.071,39.024C351.2,36.319 354.409,28.153 350.453,19.524C347.801,13.74 340.437,9.902 338.516,10.549C338.417,10.583 338.456,10.624 337.692,11.571C337.614,11.217 338.022,11.311 337.944,10.958C337.765,10.142 337.417,10.302 337.236,9.5C337.161,9.171 337.405,8.837 337.39,8.5C337.379,8.259 337.287,8.02 337.159,7.815C337.053,7.645 336.828,7.575 336.712,7.41C336.521,7.139 336.441,6.799 336.25,6.528C336.004,6.18 335.624,5.934 335.41,5.566C335.286,5.353 335.407,5.045 335.269,4.841C335.269,4.841 333.29,3.539 333.118,3.426C333.139,3.151 333.162,3.157 333.5,0Z" style="fill:rgb(213,187,170);"/>
        <path d="M415.235,225.46C414.978,230.76 414.871,232.025 414.584,232.47C414.233,233.015 413.679,233.411 413.328,233.956C410.625,233.814 410.625,233.838 379.496,234.091C358.931,234.258 351.938,235.137 270.506,235.091C270.258,235.091 267.746,235.089 267.403,235.135C266.39,235.27 266.132,235.559 265.967,235.614C265.411,232.579 265.375,232.598 265.097,229.519C265.299,229.242 264.829,228.769 265.031,228.491C266.139,226.968 266.536,227.823 268.408,227.862C280.042,228.104 338.415,227.378 344.502,227.302C377.017,226.897 376.998,227.119 409.516,226.565C409.832,226.56 413.25,226.502 413.463,226.416C413.557,226.378 413.459,226.249 414.5,225.687C414.854,225.496 414.894,225.644 415.235,225.46Z" style="fill:rgb(183,131,98);"/>
        <path d="M414.992,222.916C415.033,223.042 415.507,224.5 415.507,224.5C415.539,224.831 415.203,225.129 415.235,225.46C414.894,225.644 414.854,225.496 414.5,225.687C413.459,226.249 413.557,226.378 413.463,226.416C413.25,226.502 409.832,226.56 409.516,226.565C376.998,227.119 377.017,226.897 344.502,227.302C338.415,227.378 280.042,228.104 268.408,227.862C266.536,227.823 266.139,226.968 265.031,228.491C264.829,228.769 265.299,229.242 265.097,229.519C265.068,229.198 264.735,225.542 264.749,225.5C264.894,225.063 265.432,224.832 265.577,224.395C265.885,224.454 266.154,224.656 266.463,224.715C267.21,224.858 325.204,224.505 332.498,224.37C366.047,223.752 407.466,223.873 412.506,223.686C414.576,223.609 414.436,223.182 414.992,222.916Z" style="fill:rgb(216,171,141);"/>
        <path d="M158.487,226.117C158.741,226.292 159.157,225.887 159.411,226.062C159.54,226.152 161.014,228.31 161.069,228.497C161.161,228.805 161.025,228.812 160.941,232.519C160.91,233.923 160.731,233.899 160.744,234.435C160.752,234.797 161.013,235.142 160.961,235.5C160.904,235.883 160.491,236.152 160.435,236.535C160.17,236.462 159.945,236.278 159.681,236.205C158.447,235.865 158.43,236.116 138.501,236.117C126.393,236.117 126.403,236.37 124.517,236.625C126.19,234.41 125.877,233.953 127.512,233.511C128.824,233.155 128.865,233.274 136.396,229.261C138.185,228.307 138.101,228.029 138.488,227.772C138.488,227.772 140.35,227.09 140.512,227.031C142.364,226.682 142.394,226.286 150.5,226.214C154.501,226.178 154.483,226.181 158.487,226.117Z" style="fill:rgb(178,129,98);"/>
        <path d="M333.118,3.426C333.29,3.539 335.269,4.841 335.269,4.841C335.407,5.045 335.286,5.353 335.41,5.566C335.624,5.934 336.004,6.18 336.25,6.528C336.441,6.799 336.521,7.139 336.712,7.41C336.828,7.575 337.053,7.645 337.159,7.815C337.287,8.02 337.379,8.259 337.39,8.5C337.405,8.837 337.161,9.171 337.236,9.5C337.417,10.302 337.765,10.142 337.944,10.958C338.022,11.311 337.614,11.217 337.692,11.571C337.573,15.552 337.63,18.406 335.503,18.532C332.001,18.738 333.697,11.654 332.438,10.585C330.656,9.073 322.366,12.921 319.576,18.541C317.466,22.792 317.813,24.265 315.395,25.078C314.472,25.389 314.436,25.206 313.53,25.569C312.812,25.856 308.864,29.283 308.354,24.515C307.907,20.332 311.288,20.448 312.653,17.578C313.699,15.377 314.135,13.971 317.145,11.13C317.834,10.48 321.544,6.979 327.435,5.252C328.953,4.806 328.968,4.971 330.536,4.833C332.939,4.621 332.565,3.885 333.118,3.426Z" style="fill:rgb(207,203,203);"/>
        <path d="M140.325,225.43C140.387,225.964 140.449,226.497 140.512,227.031C140.35,227.09 138.488,227.772 138.488,227.772C138.101,228.029 138.185,228.307 136.396,229.261C128.865,233.274 128.824,233.155 127.512,233.511C125.877,233.953 126.19,234.41 124.517,236.625C123.86,236.703 123.203,236.78 122.545,236.858C122.123,236.492 121.996,237.316 121.583,236.959C121.453,236.845 120.53,236.046 120.5,235.085C120.496,234.952 124.011,232.645 126.483,231.469C128.787,230.373 129.595,229.77 130.428,229.368C132.688,228.278 132.586,228.124 134.798,226.96C136.646,225.988 136.753,226.345 137.055,226.235C137.312,226.14 137.473,225.859 137.732,225.767C137.929,225.696 137.92,225.76 140.325,225.43Z" style="fill:rgb(165,118,89);"/>
        <path d="M105.556,231.45C105.575,231.476 106.12,231.769 106.334,232.538C106.917,234.642 106.622,235.498 104.484,235.046C102.494,234.626 102.889,233.639 104.398,232.291C104.753,231.973 105.2,231.768 105.556,231.45Z" style="fill:rgb(189,132,98);"/>
    </g>
</svg>
